<svg height="32" viewBox="0 0 32 32" width="32" xmlns="http://www.w3.org/2000/svg" xmlns:xlink="http://www.w3.org/1999/xlink"><defs><path d="m0 0h32v32h-32z"/><path id="a" d="m0 0h22v14h-22z"/></defs><g fill="none" stroke="#323433" stroke-linecap="round" stroke-width="1.4" transform="translate(5 9)" xlink:href="#a"><path d="m4.58821886 9.33322369c-2.53427527 0-4.58821886-2.08866856-4.58821886-4.66578953 0-2.57712098 2.05394359-4.66743416 4.58821886-4.66743416h5.48904294c2.5358926 0 4.5898361 2.09031318 4.5898361 4.66743416 0 2.57712097-2.0539435 4.66578953-4.5898361 4.66578953"/><path d="m17.4117811 4.66677631c2.5342753 0 4.5882189 2.08866856 4.5882189 4.66578953 0 2.57712096-2.0539436 4.66743416-4.5882189 4.66743416h-5.4906602c-2.53427525 0-4.58821884-2.0903132-4.58821884-4.66743416 0-2.57712097 2.05394359-4.66578953 4.58821884-4.66578953"/></g></svg>