<svg height="32" viewBox="0 0 32 32" width="32" xmlns="http://www.w3.org/2000/svg" xmlns:xlink="http://www.w3.org/1999/xlink"><defs><path d="m0 0h32v32h-32z"/><path id="a" d="m0 0h20v20h-20z"/></defs><g fill="none" stroke="#fff" stroke-linecap="round" stroke-width="1.4" transform="translate(5 6)" xlink:href="#a"><path d="m2.80582783 12.4316368c.96906197 3.3024987 3.85657676 5.794272 7.38547387 6.2068274"/><path d="m13.3390449 1.54099481c-.6760657-.16594697-1.3826734-.25380124-2.1105052-.25380124-2.40919573 0-4.59217348.96434195-6.17725241 2.52516819-.30542017.3005541-.58909857.62371398-.84741156.96639703"/><path d="m17.5411088 16.0375153c1.5224419-1.5659639 2.4588912-3.6965585 2.4588912-6.04447685 0-1.21917073-.2521011-2.37925817-.7081607-3.43248194"/><path d="m4.91415881 9.99293569c0-1.34658511-1.10003028-2.43885522-2.45733823-2.43885522-1.3567903 0-2.45682058 1.09227011-2.45682058 2.43885522s1.10003028 2.43885521 2.45682058 2.43885521c1.35730795 0 2.45733823-1.0922701 2.45733823-2.43885521z"/><path d="m18.0801495 17.5611448c0-1.3465851-1.1000303-2.4388552-2.4573382-2.4388552-1.3567903 0-2.4568206 1.0922701-2.4568206 2.4388552s1.1000303 2.4388552 2.4568206 2.4388552c1.3573079 0 2.4573382-1.0922701 2.4573382-2.4388552z"/><path d="m18.0801495 2.43885522c0-1.34658511-1.1000303-2.43885522-2.4573382-2.43885522-1.3567903 0-2.4568206 1.09227011-2.4568206 2.43885522 0 1.34658512 1.1000303 2.43885523 2.4568206 2.43885523 1.3573079 0 2.4573382-1.09227011 2.4573382-2.43885523z"/></g></svg>